<?xml version="1.0" encoding="UTF-8" standalone="no"?>
<svg
   id="DIBUJOS"
   viewBox="0 0 708.13 398.41"
   version="1.1"
   sodipodi:docname="alarma-toque.svg"
   xml:space="preserve"
   inkscape:version="1.3 (0e150ed6c4, 2023-07-21)"
   xmlns:inkscape="http://www.inkscape.org/namespaces/inkscape"
   xmlns:sodipodi="http://sodipodi.sourceforge.net/DTD/sodipodi-0.dtd"
   xmlns="http://www.w3.org/2000/svg"
   xmlns:svg="http://www.w3.org/2000/svg"><sodipodi:namedview
     id="namedview14"
     pagecolor="#ffffff"
     bordercolor="#666666"
     borderopacity="1.0"
     inkscape:showpageshadow="2"
     inkscape:pageopacity="0.0"
     inkscape:pagecheckerboard="0"
     inkscape:deskcolor="#d1d1d1"
     inkscape:zoom="1.2215271"
     inkscape:cx="354.065"
     inkscape:cy="199.34064"
     inkscape:window-width="1920"
     inkscape:window-height="1009"
     inkscape:window-x="-8"
     inkscape:window-y="-8"
     inkscape:window-maximized="1"
     inkscape:current-layer="g13" /><defs
     id="defs2"><style
       id="style1">&#10;      .cls-1 {&#10;        stroke: #ff7b54;&#10;        stroke-miterlimit: 10;&#10;        stroke-width: 13.96px;&#10;      }&#10;&#10;      .cls-1, .cls-2 {&#10;        fill: none;&#10;      }&#10;&#10;      .cls-3 {&#10;        fill: url(#Degradado_sin_nombre_20);&#10;      }&#10;&#10;      .cls-3, .cls-2, .cls-4, .cls-5, .cls-6, .cls-7 {&#10;        stroke-width: 0px;&#10;      }&#10;&#10;      .cls-8 {&#10;        clip-path: url(#clippath);&#10;      }&#10;&#10;      .cls-9 {&#10;        clip-path: url(#clippath-1);&#10;      }&#10;&#10;      .cls-4 {&#10;        fill: #33c2ff;&#10;      }&#10;&#10;      .cls-5 {&#10;        fill: #1f5c94;&#10;      }&#10;&#10;      .cls-6 {&#10;        fill: #ff7a54;&#10;      }&#10;&#10;      .cls-7 {&#10;        fill: #ffc93d;&#10;      }&#10;    </style><clipPath
       id="clippath"><rect
         class="cls-2"
         x="0"
         y="0"
         width="708.12"
         height="398.41"
         id="rect1" /></clipPath><linearGradient
       id="Degradado_sin_nombre_20"
       data-name="Degradado sin nombre 20"
       x1="1317.4415"
       y1="988.24194"
       x2="1316.6962"
       y2="988.24194"
       gradientTransform="translate(-417245.59 -556359.89) rotate(90) scale(422.57 -422.57)"
       gradientUnits="userSpaceOnUse"><stop
         offset="0"
         stop-color="#1f5e96"
         id="stop1"
         style="stop-color:#f6a227;stop-opacity:1;" /><stop
         offset="1"
         stop-color="#3291ff"
         id="stop2"
         style="stop-color:#ffc93c;stop-opacity:1;" /></linearGradient><clipPath
       id="clippath-1"><rect
         class="cls-2"
         x="257.36"
         y="60.62"
         width="193.41"
         height="261.64"
         id="rect2" /></clipPath></defs><g
     class="cls-8"
     clip-path="url(#clippath)"
     id="g14"><g
       id="g13"><rect
         class="cls-3"
         x="-15.64"
         y="-14.17"
         width="737.95"
         height="426.75"
         id="rect3"
         style="fill:url(#Degradado_sin_nombre_20)" /><g
         id="g8"><path
           class="cls-1"
           d="m127.57,355.7c-86.43-86.43-86.43-226.56,0-312.99"
           id="path3" /><path
           class="cls-1"
           d="m580.56,42.71c86.43,86.43,86.43,226.56,0,312.99"
           id="path4" /><path
           class="cls-1"
           d="m165.48,317.79c-65.5-65.5-65.49-171.68,0-237.18"
           id="path5" /><path
           class="cls-1"
           d="m542.66,80.62c65.5,65.5,65.49,171.68,0,237.18"
           id="path6" /><path
           class="cls-1"
           d="m203.39,279.89c-44.56-44.56-44.56-116.8,0-161.36"
           id="path7" /><path
           class="cls-1"
           d="m504.75,118.52c44.56,44.56,44.56,116.8,0,161.36"
           id="path8" /></g><g
         class="cls-9"
         clip-path="url(#clippath-1)"
         id="g12"><path
           class="cls-4"
           d="m264.09,259.25c0,34.8,40.29,63.01,89.98,63.01s89.98-28.21,89.98-63.01v-22.35h-179.96v22.35Z"
           id="path9" /><path
           class="cls-5"
           d="m444.05,236.9c0,34.8-40.29,63.01-89.98,63.01s-89.98-28.21-89.98-63.01,40.29-63.01,89.98-63.01,89.98,28.21,89.98,63.01"
           id="path10" /><path
           class="cls-7"
           d="m275.71,232.79c0,30.31,35.08,54.87,78.36,54.87s78.35-24.57,78.35-54.87v-26.08h-156.71v26.08Z"
           id="path11" /><path
           class="cls-6"
           d="m432.42,206.71c0,30.31-35.08,54.87-78.36,54.87s-78.35-24.57-78.35-54.87,35.08-54.87,78.35-54.87,78.36,24.57,78.36,54.87"
           id="path12" /></g></g></g></svg>
