<?xml version="1.0" encoding="UTF-8" standalone="no"?>
<svg
   id="DIBUJOS"
   viewBox="0 0 708.13 398.41"
   version="1.1"
   sodipodi:docname="metronome.svg"
   xml:space="preserve"
   inkscape:version="1.3 (0e150ed6c4, 2023-07-21)"
   width="708.13"
   height="398.41"
   xmlns:inkscape="http://www.inkscape.org/namespaces/inkscape"
   xmlns:sodipodi="http://sodipodi.sourceforge.net/DTD/sodipodi-0.dtd"
   xmlns="http://www.w3.org/2000/svg"
   xmlns:svg="http://www.w3.org/2000/svg"><sodipodi:namedview
     id="namedview14"
     pagecolor="#ffffff"
     bordercolor="#666666"
     borderopacity="1.0"
     inkscape:showpageshadow="2"
     inkscape:pageopacity="0.0"
     inkscape:pagecheckerboard="0"
     inkscape:deskcolor="#d1d1d1"
     inkscape:zoom="0.61076355"
     inkscape:cx="274.24688"
     inkscape:cy="-81.046093"
     inkscape:window-width="1920"
     inkscape:window-height="1009"
     inkscape:window-x="-8"
     inkscape:window-y="-8"
     inkscape:window-maximized="1"
     inkscape:current-layer="DIBUJOS"><inkscape:page
       x="0"
       y="0"
       width="708.13"
       height="398.41"
       id="page1"
       margin="0"
       bleed="0" /></sodipodi:namedview><defs
     id="defs2"><style
       id="style1">&#10;      .cls-1 {&#10;        stroke: #ff7b54;&#10;        stroke-miterlimit: 10;&#10;        stroke-width: 13.96px;&#10;      }&#10;&#10;      .cls-1, .cls-2 {&#10;        fill: none;&#10;      }&#10;&#10;      .cls-3 {&#10;        fill: url(#Degradado_sin_nombre_20);&#10;      }&#10;&#10;      .cls-3, .cls-2, .cls-4, .cls-5, .cls-6, .cls-7 {&#10;        stroke-width: 0px;&#10;      }&#10;&#10;      .cls-8 {&#10;        clip-path: url(#clippath);&#10;      }&#10;&#10;      .cls-9 {&#10;        clip-path: url(#clippath-1);&#10;      }&#10;&#10;      .cls-4 {&#10;        fill: #33c2ff;&#10;      }&#10;&#10;      .cls-5 {&#10;        fill: #1f5c94;&#10;      }&#10;&#10;      .cls-6 {&#10;        fill: #ff7a54;&#10;      }&#10;&#10;      .cls-7 {&#10;        fill: #ffc93d;&#10;      }&#10;    </style><clipPath
       id="clippath"><rect
         class="cls-2"
         x="0"
         y="0"
         width="708.12"
         height="398.41"
         id="rect1" /></clipPath><linearGradient
       id="Degradado_sin_nombre_20"
       data-name="Degradado sin nombre 20"
       x1="1316.7046"
       y1="988.18439"
       x2="1317.5865"
       y2="988.18439"
       gradientTransform="matrix(0,422.57,422.57,0,-417245.59,-556359.89)"
       gradientUnits="userSpaceOnUse"><stop
         offset="0"
         stop-color="#1f5e96"
         id="stop1"
         style="stop-color:#f6a227;stop-opacity:1;" /><stop
         offset="1"
         stop-color="#3291ff"
         id="stop2"
         style="stop-color:#ffc93c;stop-opacity:1;" /></linearGradient><clipPath
       id="clippath-1"><rect
         class="cls-2"
         x="257.35999"
         y="60.619999"
         width="193.41"
         height="261.64001"
         id="rect2" /></clipPath></defs><g
     class="cls-8"
     clip-path="url(#clippath)"
     id="g14"><g
       id="g13"><rect
         class="cls-3"
         x="-15.64"
         y="-14.17"
         width="737.95001"
         height="426.75"
         id="rect3"
         style="fill:url(#Degradado_sin_nombre_20)" /></g></g><path
     id="path4"
     style="fill:#1d5b92;fill-opacity:1;stroke-width:15.0445"
     d="m 353.11749,36.970228 c -45.31746,1.068314 -51.64216,30.502031 -51.64216,30.502031 l -0.0445,-0.305487 -67.84994,253.649698 c -0.45133,2.25667 -0.90373,4.66364 -0.90373,7.07075 0,16.69935 13.39113,30.09048 30.09046,30.09048 h 180.53224 c 16.69933,0 30.09046,-13.39113 30.09046,-30.09048 0,-2.40711 -0.4524,-4.81408 -0.90373,-7.07075 L 452.02742,243.93982 425.24636,144.19405 404.63661,67.166772 c 0,0 -8.2886,-31.215659 -51.51912,-30.196544 z"
     sodipodi:nodetypes="scccssssccccs" /><path
     style="fill:#33c2fe;fill-opacity:1;stroke-width:4.36863"
     d="m 341.7504,136.77447 v 10.85069 l 22.56671,-0.0478 V 136.77447 H 341.7504"
     id="path2"
     sodipodi:nodetypes="ccccc" /><path
     style="fill:#33c2fe;fill-opacity:1;stroke-width:4.36863"
     d="m 341.7504,116.5793 v 10.85069 l 22.56671,-0.0478 V 116.5793 H 341.7504"
     id="path2-3"
     sodipodi:nodetypes="ccccc" /><path
     style="fill:#33c2fe;fill-opacity:1;stroke-width:4.36863"
     d="m 341.7504,96.384124 v 10.850696 l 22.56671,-0.0478 V 96.384124 H 341.7504"
     id="path2-3-5"
     sodipodi:nodetypes="ccccc" /><path
     style="fill:#33c2fe;fill-opacity:1;stroke-width:4.36863"
     d="m 341.7504,76.18895 v 10.850691 l 22.56671,-0.04778 V 76.18895 H 341.7504"
     id="path2-3-5-7"
     sodipodi:nodetypes="ccccc" /><path
     style="fill:#33c2fe;fill-opacity:1;stroke-width:4.36863"
     d="m 341.7504,216.77447 v 10.85069 l 22.56671,-0.0478 V 216.77447 H 341.7504"
     id="path2-2"
     sodipodi:nodetypes="ccccc" /><path
     style="fill:#33c2fe;fill-opacity:1;stroke-width:4.36863"
     d="m 341.7504,196.5793 v 10.85069 l 22.56671,-0.0478 V 196.5793 H 341.7504"
     id="path2-3-4"
     sodipodi:nodetypes="ccccc" /><path
     style="fill:#33c2fe;fill-opacity:1;stroke-width:4.36863"
     d="m 341.7504,176.38412 v 10.8507 l 22.56671,-0.0478 v -10.8029 H 341.7504"
     id="path2-3-5-5"
     sodipodi:nodetypes="ccccc" /><path
     style="fill:#33c2fe;fill-opacity:1;stroke-width:4.36863"
     d="m 341.7504,156.18895 v 10.85069 l 22.56671,-0.0478 V 156.18895 H 341.7504"
     id="path2-3-5-7-4"
     sodipodi:nodetypes="ccccc" /><g
     id="g5"
     transform="rotate(-3.1681962,587.06278,344.63216)"
     inkscape:transform-center-x="-62.783573"
     inkscape:transform-center-y="-66.646646"><path
       style="fill:#fe7a53;fill-opacity:1;stroke-width:15.0445"
       d="m 470.23017,144.34526 -42.57586,42.57586 -10.68158,-10.68158 -21.2127,21.36316 42.42542,42.42541 21.36315,-21.21271 -10.68158,-10.68157 42.57586,-42.57587 z"
       id="path3" /><path
       id="path1"
       style="fill:#fe7a53;fill-opacity:1;stroke-width:15.0445"
       d="m 347.96239,266.61161 22.74502,19.10276 46.26535,-45.68649 -21.21225,-21.21225 z"
       sodipodi:nodetypes="ccccc" /></g><ellipse
     style="fill:#33c2fe;stroke-width:0.831496"
     id="path5"
     cx="353.03375"
     cy="290.01443"
     rx="25.470329"
     ry="24.891459" /></svg>
